<svg xmlns="http://www.w3.org/2000/svg" width="375" viewBox="0 0 375 375" height="375" version="1.0"><defs><clipPath id="a"><path d="M 85.574219 57.246094 L 289.574219 57.246094 L 289.574219 317.496094 L 85.574219 317.496094 Z M 85.574219 57.246094"/></clipPath><clipPath id="b"><path d="M 187.5 231.644531 L 217 231.644531 L 217 280.394531 L 187.5 280.394531 Z M 187.5 231.644531"/></clipPath><clipPath id="c"><path d="M 188 251 L 216 251 L 216 280.394531 L 188 280.394531 Z M 188 251"/></clipPath><clipPath id="d"><path d="M 204 231.644531 L 217 231.644531 L 217 252 L 204 252 Z M 204 231.644531"/></clipPath><clipPath id="e"><path d="M 191 231.644531 L 205 231.644531 L 205 258 L 191 258 Z M 191 231.644531"/></clipPath><clipPath id="f"><path d="M 187.5 257 L 203 257 L 203 280 L 187.5 280 Z M 187.5 257"/></clipPath><clipPath id="g"><path d="M 85.574219 196.09375 L 115 196.09375 L 115 244.84375 L 85.574219 244.84375 Z M 85.574219 196.09375"/></clipPath><clipPath id="h"><path d="M 86 215 L 114 215 L 114 244.84375 L 86 244.84375 Z M 86 215"/></clipPath><clipPath id="i"><path d="M 102 196.09375 L 115 196.09375 L 115 216 L 102 216 Z M 102 196.09375"/></clipPath><clipPath id="j"><path d="M 89 196.09375 L 103 196.09375 L 103 222 L 89 222 Z M 89 196.09375"/></clipPath><clipPath id="k"><path d="M 85.574219 221 L 101 221 L 101 244.84375 L 85.574219 244.84375 Z M 85.574219 221"/></clipPath><clipPath id="l"><path d="M 254 138.921875 L 283.96875 138.921875 L 283.96875 187.671875 L 254 187.671875 Z M 254 138.921875"/></clipPath><clipPath id="m"><path d="M 254 158 L 282 158 L 282 187.671875 L 254 187.671875 Z M 254 158"/></clipPath><clipPath id="n"><path d="M 270 138.921875 L 283.96875 138.921875 L 283.96875 159 L 270 159 Z M 270 138.921875"/></clipPath><clipPath id="o"><path d="M 258 138.921875 L 272 138.921875 L 272 165 L 258 165 Z M 258 138.921875"/></clipPath><clipPath id="p"><path d="M 254 164 L 269 164 L 269 187.671875 L 254 187.671875 Z M 254 164"/></clipPath></defs><path d="M 187.5 0 C 83.945312 0 0 83.945312 0 187.5 C 0 291.054688 83.945312 375 187.5 375 C 291.054688 375 375 291.054688 375 187.5 C 375 83.945312 291.054688 0 187.5 0 Z M 187.5 0"/><g clip-path="url(#a)"><path fill="#F3E505" d="M 212.882812 169.875 L 184.542969 163.628906 C 153.984375 156.898438 142.242188 146.742188 142.242188 130.800781 C 142.242188 110.59375 157.824219 96.859375 187.574219 96.859375 C 212.367188 96.859375 228.585938 108.355469 234.371094 124.90625 C 234.796875 126.117188 235.1875 127.355469 235.46875 128.640625 C 235.730469 129.828125 235.941406 130.902344 236.109375 131.855469 C 236.59375 134.539062 238.945312 136.457031 241.675781 136.457031 L 278.242188 136.457031 C 279.8125 136.457031 281.320312 135.808594 282.382812 134.652344 C 283.457031 133.503906 284.003906 131.960938 283.890625 130.398438 C 280.753906 86.65625 242.546875 57.261719 188.816406 57.261719 C 130.457031 57.261719 91.242188 88.324219 91.242188 134.550781 C 91.242188 169.875 118.128906 191.234375 162.863281 200.925781 L 194.785156 207.988281 C 226.375 215.054688 238.574219 225.074219 238.574219 242.164062 C 238.574219 262.039062 218.859375 277.878906 189.835938 277.878906 C 163.179688 277.878906 143.402344 266.71875 136.472656 250.371094 C 135.316406 247.457031 134.511719 244.734375 133.980469 242.621094 C 133.335938 240.082031 131.085938 238.28125 128.464844 238.28125 L 91.242188 238.28125 C 89.660156 238.28125 88.140625 238.945312 87.070312 240.109375 C 86 241.273438 85.46875 242.828125 85.597656 244.40625 C 89.328125 288.796875 129.167969 317.476562 187.105469 317.476562 C 250.3125 317.476562 289.574219 287.132812 289.574219 238.28125 C 289.574219 202.132812 262.910156 180.71875 212.882812 169.875 Z M 212.882812 169.875"/></g><g clip-path="url(#b)"><path fill="#F3E505" d="M 202.886719 231.65625 C 202.886719 231.65625 202.128906 231.65625 201.671875 232.597656 C 201.21875 233.539062 191.679688 256.449219 191.679688 256.449219 C 191.679688 256.449219 191.527344 257.085938 192.253906 257.085938 C 192.984375 257.085938 200.050781 257.085938 200.050781 257.085938 C 200.050781 257.085938 200.839844 257.148438 200.292969 258.207031 C 199.746094 259.269531 188.097656 278.738281 188.097656 278.738281 C 188.097656 278.738281 187.507812 279.421875 188.097656 279.898438 C 188.691406 280.375 189.144531 279.648438 190.03125 278.761719 C 190.921875 277.875 215.046875 252.355469 215.046875 252.355469 C 215.046875 252.355469 216.183594 251.261719 214.316406 251.261719 C 212.453125 251.261719 206.761719 251.261719 206.761719 251.261719 C 206.761719 251.261719 206.148438 251.242188 206.304688 250.820312 C 206.464844 250.398438 216.078125 233.976562 216.078125 233.976562 C 216.078125 233.976562 217.503906 231.65625 215.683594 231.65625 C 213.863281 231.65625 202.886719 231.65625 202.886719 231.65625"/></g><g clip-path="url(#c)"><path fill="#F8990F" d="M 188.097656 279.898438 C 188.691406 280.375 189.144531 279.648438 190.03125 278.761719 C 190.921875 277.875 215.046875 252.355469 215.046875 252.355469 C 215.046875 252.355469 216.183594 251.261719 214.316406 251.261719 C 213.855469 251.261719 213.160156 251.261719 212.375 251.261719 C 214.242188 251.261719 213.101562 252.355469 213.101562 252.355469 C 213.101562 252.355469 190.144531 277.875 189.253906 278.761719 C 189.238281 278.777344 189.226562 278.792969 189.210938 278.804688"/></g><g clip-path="url(#d)"><path fill="#F8990F" d="M 216.078125 233.976562 C 216.078125 233.976562 217.503906 231.65625 215.683594 231.65625 C 215.332031 231.65625 214.632812 231.65625 213.742188 231.65625 C 215.5625 231.65625 214.136719 233.976562 214.136719 233.976562 C 214.136719 233.976562 204.523438 250.398438 204.363281 250.820312 C 204.203125 251.242188 204.820312 251.261719 204.820312 251.261719 C 204.820312 251.261719 205.640625 251.261719 206.761719 251.261719 C 206.761719 251.261719 206.148438 251.242188 206.304688 250.820312 C 206.464844 250.398438 216.078125 233.976562 216.078125 233.976562"/></g><g clip-path="url(#e)"><path fill="#FEF98F" d="M 193.621094 256.449219 C 193.621094 256.449219 203.160156 233.539062 203.613281 232.597656 C 204.070312 231.65625 204.828125 231.65625 204.828125 231.65625 C 203.660156 231.65625 202.886719 231.65625 202.886719 231.65625 C 202.886719 231.65625 202.128906 231.65625 201.671875 232.597656 C 201.21875 233.539062 191.679688 256.449219 191.679688 256.449219 C 191.679688 256.449219 191.527344 257.085938 192.253906 257.085938 C 192.46875 257.085938 193.230469 257.085938 194.199219 257.085938 C 193.46875 257.085938 193.621094 256.449219 193.621094 256.449219"/></g><g clip-path="url(#f)"><path fill="#FEF98F" d="M 188.835938 278.804688 C 188.867188 278.761719 188.890625 278.738281 188.890625 278.738281 C 188.890625 278.738281 201.6875 259.269531 202.234375 258.207031 C 202.78125 257.148438 201.992188 257.085938 201.992188 257.085938 C 201.992188 257.085938 201.167969 257.085938 200.050781 257.085938 C 200.050781 257.085938 200.839844 257.148438 200.292969 258.207031 C 199.746094 259.269531 188.097656 278.738281 188.097656 278.738281 C 188.097656 278.738281 187.507812 279.421875 188.097656 279.898438 L 188.835938 278.804688"/></g><g clip-path="url(#g)"><path fill="#F3E505" d="M 100.960938 196.105469 C 100.960938 196.105469 100.203125 196.105469 99.75 197.046875 C 99.292969 197.988281 89.753906 220.898438 89.753906 220.898438 C 89.753906 220.898438 89.601562 221.535156 90.332031 221.535156 C 91.058594 221.535156 98.125 221.535156 98.125 221.535156 C 98.125 221.535156 98.914062 221.59375 98.367188 222.65625 C 97.820312 223.71875 86.171875 243.1875 86.171875 243.1875 C 86.171875 243.1875 85.582031 243.871094 86.171875 244.347656 C 86.765625 244.824219 87.21875 244.097656 88.109375 243.210938 C 88.996094 242.324219 113.121094 216.804688 113.121094 216.804688 C 113.121094 216.804688 114.257812 215.710938 112.394531 215.710938 C 110.527344 215.710938 104.835938 215.710938 104.835938 215.710938 C 104.835938 215.710938 104.222656 215.6875 104.382812 215.269531 C 104.542969 214.847656 114.152344 198.425781 114.152344 198.425781 C 114.152344 198.425781 115.578125 196.105469 113.757812 196.105469 C 111.9375 196.105469 100.960938 196.105469 100.960938 196.105469"/></g><g clip-path="url(#h)"><path fill="#F8990F" d="M 86.171875 244.347656 C 86.765625 244.824219 87.21875 244.097656 88.109375 243.210938 C 88.996094 242.324219 113.121094 216.804688 113.121094 216.804688 C 113.121094 216.804688 114.257812 215.710938 112.394531 215.710938 C 111.933594 215.710938 111.234375 215.710938 110.449219 215.710938 C 112.316406 215.710938 111.179688 216.804688 111.179688 216.804688 C 111.179688 216.804688 88.21875 242.324219 87.332031 243.210938 C 87.316406 243.226562 87.300781 243.238281 87.289062 243.253906"/></g><g clip-path="url(#i)"><path fill="#F8990F" d="M 114.152344 198.425781 C 114.152344 198.425781 115.578125 196.105469 113.757812 196.105469 C 113.40625 196.105469 112.710938 196.105469 111.816406 196.105469 C 113.636719 196.105469 112.210938 198.425781 112.210938 198.425781 C 112.210938 198.425781 102.597656 214.847656 102.441406 215.269531 C 102.28125 215.6875 102.894531 215.710938 102.894531 215.710938 C 102.894531 215.710938 103.714844 215.710938 104.835938 215.710938 C 104.835938 215.710938 104.222656 215.6875 104.382812 215.269531 C 104.542969 214.847656 114.152344 198.425781 114.152344 198.425781"/></g><g clip-path="url(#j)"><path fill="#FEF98F" d="M 91.695312 220.898438 C 91.695312 220.898438 101.234375 197.988281 101.691406 197.046875 C 102.144531 196.105469 102.90625 196.105469 102.90625 196.105469 C 101.734375 196.105469 100.960938 196.105469 100.960938 196.105469 C 100.960938 196.105469 100.203125 196.105469 99.75 197.046875 C 99.292969 197.988281 89.753906 220.898438 89.753906 220.898438 C 89.753906 220.898438 89.601562 221.535156 90.332031 221.535156 C 90.546875 221.535156 91.304688 221.535156 92.273438 221.535156 C 91.542969 221.535156 91.695312 220.898438 91.695312 220.898438"/></g><g clip-path="url(#k)"><path fill="#FEF98F" d="M 86.914062 243.253906 C 86.945312 243.210938 86.964844 243.1875 86.964844 243.1875 C 86.964844 243.1875 99.765625 223.71875 100.308594 222.65625 C 100.855469 221.59375 100.066406 221.535156 100.066406 221.535156 C 100.066406 221.535156 99.242188 221.535156 98.125 221.535156 C 98.125 221.535156 98.914062 221.59375 98.367188 222.65625 C 97.820312 223.71875 86.171875 243.1875 86.171875 243.1875 C 86.171875 243.1875 85.582031 243.871094 86.171875 244.347656 L 86.914062 243.253906"/></g><g clip-path="url(#l)"><path fill="#F3E505" d="M 269.355469 138.933594 C 269.355469 138.933594 268.597656 138.933594 268.144531 139.871094 C 267.6875 140.8125 258.148438 163.722656 258.148438 163.722656 C 258.148438 163.722656 257.996094 164.359375 258.726562 164.359375 C 259.453125 164.359375 266.519531 164.359375 266.519531 164.359375 C 266.519531 164.359375 267.308594 164.421875 266.761719 165.484375 C 266.21875 166.542969 254.570312 186.011719 254.570312 186.011719 C 254.570312 186.011719 253.976562 186.695312 254.570312 187.171875 C 255.160156 187.652344 255.617188 186.921875 256.503906 186.035156 C 257.390625 185.148438 281.515625 159.628906 281.515625 159.628906 C 281.515625 159.628906 282.65625 158.539062 280.789062 158.539062 C 278.921875 158.539062 273.230469 158.539062 273.230469 158.539062 C 273.230469 158.539062 272.617188 158.515625 272.777344 158.09375 C 272.9375 157.671875 282.546875 141.253906 282.546875 141.253906 C 282.546875 141.253906 283.976562 138.933594 282.152344 138.933594 C 280.332031 138.933594 269.355469 138.933594 269.355469 138.933594"/></g><g clip-path="url(#m)"><path fill="#F8990F" d="M 254.570312 187.171875 C 255.160156 187.652344 255.617188 186.921875 256.503906 186.035156 C 257.390625 185.148438 281.515625 159.628906 281.515625 159.628906 C 281.515625 159.628906 282.65625 158.539062 280.789062 158.539062 C 280.328125 158.539062 279.632812 158.539062 278.847656 158.539062 C 280.710938 158.539062 279.574219 159.628906 279.574219 159.628906 C 279.574219 159.628906 256.613281 185.148438 255.726562 186.035156 C 255.710938 186.050781 255.695312 186.066406 255.683594 186.082031"/></g><g clip-path="url(#n)"><path fill="#F8990F" d="M 282.546875 141.253906 C 282.546875 141.253906 283.976562 138.933594 282.152344 138.933594 C 281.800781 138.933594 281.105469 138.933594 280.210938 138.933594 C 282.03125 138.933594 280.605469 141.253906 280.605469 141.253906 C 280.605469 141.253906 270.992188 157.671875 270.835938 158.09375 C 270.675781 158.515625 271.289062 158.539062 271.289062 158.539062 C 271.289062 158.539062 272.109375 158.539062 273.230469 158.539062 C 273.230469 158.539062 272.617188 158.515625 272.777344 158.09375 C 272.9375 157.671875 282.546875 141.253906 282.546875 141.253906"/></g><g clip-path="url(#o)"><path fill="#FEF98F" d="M 260.089844 163.722656 C 260.089844 163.722656 269.628906 140.8125 270.085938 139.871094 C 270.539062 138.933594 271.300781 138.933594 271.300781 138.933594 C 270.128906 138.933594 269.355469 138.933594 269.355469 138.933594 C 269.355469 138.933594 268.597656 138.933594 268.144531 139.871094 C 267.6875 140.8125 258.148438 163.722656 258.148438 163.722656 C 258.148438 163.722656 257.996094 164.359375 258.726562 164.359375 C 258.941406 164.359375 259.699219 164.359375 260.667969 164.359375 C 259.941406 164.359375 260.089844 163.722656 260.089844 163.722656"/></g><g clip-path="url(#p)"><path fill="#FEF98F" d="M 255.308594 186.082031 C 255.339844 186.039062 255.359375 186.011719 255.359375 186.011719 C 255.359375 186.011719 268.160156 166.542969 268.707031 165.484375 C 269.253906 164.421875 268.460938 164.359375 268.460938 164.359375 C 268.460938 164.359375 267.636719 164.359375 266.519531 164.359375 C 266.519531 164.359375 267.308594 164.421875 266.761719 165.484375 C 266.21875 166.542969 254.570312 186.011719 254.570312 186.011719 C 254.570312 186.011719 253.976562 186.695312 254.570312 187.171875 L 255.308594 186.082031"/></g></svg>