<svg xmlns="http://www.w3.org/2000/svg" xmlns:xlink="http://www.w3.org/1999/xlink" width="375" viewBox="0 0 375 375" height="375" version="1.0"><defs><clipPath id="d"><path d="M 0.398438 0.078125 L 175 0.078125 L 175 174.800781 L 0.398438 174.800781 Z M 0.398438 0.078125"/></clipPath><clipPath id="c"><path d="M0 0H175V175H0z"/></clipPath><clipPath id="g"><path d="M 0 0.078125 L 174.71875 0.078125 L 174.71875 174.800781 L 0 174.800781 Z M 0 0.078125"/></clipPath><clipPath id="f"><path d="M0 0H175V175H0z"/></clipPath><clipPath id="j"><path d="M 0.078125 0.398438 L 174.800781 0.398438 L 174.800781 175 L 0.078125 175 Z M 0.078125 0.398438"/></clipPath><clipPath id="i"><path d="M0 0H175V175H0z"/></clipPath><g id="k"><path d="M 41.90625 0 L 9.046875 0 C 7.734375 0 6.78125 -0.289062 6.1875 -0.875 C 5.59375 -1.46875 5.296875 -2.425781 5.296875 -3.75 L 5.296875 -15.90625 C 5.296875 -17.226562 5.59375 -18.179688 6.1875 -18.765625 C 6.78125 -19.359375 7.734375 -19.65625 9.046875 -19.65625 L 37.03125 -19.65625 C 37.925781 -19.65625 38.597656 -19.945312 39.046875 -20.53125 C 39.503906 -21.125 39.734375 -21.835938 39.734375 -22.671875 C 39.734375 -23.847656 39.503906 -24.710938 39.046875 -25.265625 C 38.597656 -25.828125 37.925781 -26.140625 37.03125 -26.203125 L 21.421875 -28.390625 C 16.566406 -29.085938 12.664062 -30.679688 9.71875 -33.171875 C 6.769531 -35.671875 5.296875 -39.832031 5.296875 -45.65625 L 5.296875 -56.578125 C 5.296875 -62.472656 7.203125 -66.992188 11.015625 -70.140625 C 14.835938 -73.296875 20.109375 -74.875 26.828125 -74.875 L 55.953125 -74.875 C 57.265625 -74.875 58.21875 -74.578125 58.8125 -73.984375 C 59.40625 -73.398438 59.703125 -72.453125 59.703125 -71.140625 L 59.703125 -58.765625 C 59.703125 -57.441406 59.40625 -56.484375 58.8125 -55.890625 C 58.21875 -55.304688 57.265625 -55.015625 55.953125 -55.015625 L 31.71875 -55.015625 C 30.820312 -55.015625 30.128906 -54.71875 29.640625 -54.125 C 29.148438 -53.539062 28.90625 -52.796875 28.90625 -51.890625 C 28.90625 -50.992188 29.148438 -50.234375 29.640625 -49.609375 C 30.128906 -48.984375 30.820312 -48.632812 31.71875 -48.5625 L 47.21875 -46.484375 C 52.070312 -45.796875 55.988281 -44.203125 58.96875 -41.703125 C 61.945312 -39.203125 63.4375 -35.039062 63.4375 -29.21875 L 63.4375 -18.296875 C 63.4375 -12.410156 61.507812 -7.890625 57.65625 -4.734375 C 53.8125 -1.578125 48.5625 0 41.90625 0 Z M 41.90625 0"/></g><g id="l"><path d="M 26.515625 0 L 10.921875 0 C 9.597656 0 8.640625 -0.289062 8.046875 -0.875 C 7.460938 -1.46875 7.171875 -2.425781 7.171875 -3.75 L 7.171875 -71.140625 C 7.171875 -72.453125 7.460938 -73.398438 8.046875 -73.984375 C 8.640625 -74.578125 9.597656 -74.875 10.921875 -74.875 L 21.734375 -74.875 C 23.054688 -74.875 24.179688 -74.664062 25.109375 -74.25 C 26.046875 -73.832031 26.96875 -73.109375 27.875 -72.078125 L 48.046875 -48.984375 L 48.046875 -71.140625 C 48.046875 -72.453125 48.335938 -73.398438 48.921875 -73.984375 C 49.515625 -74.578125 50.472656 -74.875 51.796875 -74.875 L 67.390625 -74.875 C 68.710938 -74.875 69.664062 -74.578125 70.25 -73.984375 C 70.84375 -73.398438 71.140625 -72.453125 71.140625 -71.140625 L 71.140625 -3.75 C 71.140625 -2.425781 70.84375 -1.46875 70.25 -0.875 C 69.664062 -0.289062 68.710938 0 67.390625 0 L 51.796875 0 C 50.472656 0 49.515625 -0.289062 48.921875 -0.875 C 48.335938 -1.46875 48.046875 -2.425781 48.046875 -3.75 L 48.046875 -16.53125 L 30.265625 -38.0625 L 30.265625 -3.75 C 30.265625 -2.425781 29.96875 -1.46875 29.375 -0.875 C 28.789062 -0.289062 27.835938 0 26.515625 0 Z M 26.515625 0"/></g><g id="m"><path d="M 34.3125 -53.046875 L 29.4375 -37.234375 L 45.765625 -37.234375 L 40.875 -53.046875 C 40.59375 -53.660156 40.296875 -54.109375 39.984375 -54.390625 C 39.671875 -54.671875 39.304688 -54.8125 38.890625 -54.8125 L 36.296875 -54.8125 C 35.878906 -54.8125 35.515625 -54.671875 35.203125 -54.390625 C 34.890625 -54.109375 34.59375 -53.660156 34.3125 -53.046875 Z M 28.390625 -3.75 C 28.390625 -2.425781 28.09375 -1.46875 27.5 -0.875 C 26.914062 -0.289062 25.960938 0 24.640625 0 L 9.359375 0 C 8.046875 0 7.09375 -0.289062 6.5 -0.875 C 5.90625 -1.46875 5.609375 -2.425781 5.609375 -3.75 L 5.609375 -31.203125 C 5.609375 -33.273438 5.9375 -35.664062 6.59375 -38.375 C 7.257812 -41.082031 8.285156 -44.238281 9.671875 -47.84375 L 18.71875 -71.453125 C 19.132812 -72.628906 19.773438 -73.492188 20.640625 -74.046875 C 21.503906 -74.597656 22.632812 -74.875 24.03125 -74.875 L 52 -74.875 C 53.3125 -74.875 54.398438 -74.597656 55.265625 -74.046875 C 56.140625 -73.492188 56.785156 -72.628906 57.203125 -71.453125 L 66.25 -47.84375 C 67.632812 -44.238281 68.65625 -41.082031 69.3125 -38.375 C 69.96875 -35.664062 70.296875 -33.273438 70.296875 -31.203125 L 70.296875 -3.75 C 70.296875 -2.425781 70 -1.46875 69.40625 -0.875 C 68.820312 -0.289062 67.875 0 66.5625 0 L 50.859375 0 C 49.472656 0 48.445312 -0.289062 47.78125 -0.875 C 47.125 -1.46875 46.796875 -2.425781 46.796875 -3.75 L 46.796875 -18.296875 L 28.390625 -18.296875 Z M 28.390625 -3.75"/></g><g id="n"><path d="M 26.421875 0 L 10.921875 0 C 9.597656 0 8.640625 -0.289062 8.046875 -0.875 C 7.460938 -1.46875 7.171875 -2.425781 7.171875 -3.75 L 7.171875 -71.140625 C 7.171875 -72.453125 7.460938 -73.398438 8.046875 -73.984375 C 8.640625 -74.578125 9.597656 -74.875 10.921875 -74.875 L 27.65625 -74.875 C 28.769531 -74.875 29.691406 -74.628906 30.421875 -74.140625 C 31.148438 -73.660156 31.828125 -72.867188 32.453125 -71.765625 L 41.8125 -54.8125 C 42.15625 -54.1875 42.445312 -53.734375 42.6875 -53.453125 C 42.9375 -53.179688 43.269531 -53.046875 43.6875 -53.046875 L 44.609375 -53.046875 C 45.023438 -53.046875 45.351562 -53.179688 45.59375 -53.453125 C 45.84375 -53.734375 46.140625 -54.1875 46.484375 -54.8125 L 55.75 -71.765625 C 56.375 -72.867188 57.046875 -73.660156 57.765625 -74.140625 C 58.492188 -74.628906 59.414062 -74.875 60.53125 -74.875 L 77.375 -74.875 C 78.695312 -74.875 79.648438 -74.578125 80.234375 -73.984375 C 80.828125 -73.398438 81.125 -72.453125 81.125 -71.140625 L 81.125 -3.75 C 81.125 -2.425781 80.828125 -1.46875 80.234375 -0.875 C 79.648438 -0.289062 78.695312 0 77.375 0 L 61.359375 0 C 60.046875 0 59.09375 -0.289062 58.5 -0.875 C 57.90625 -1.46875 57.609375 -2.425781 57.609375 -3.75 L 57.609375 -40.359375 L 51.484375 -29.015625 C 50.859375 -27.835938 50.109375 -26.988281 49.234375 -26.46875 C 48.367188 -25.945312 47.28125 -25.6875 45.96875 -25.6875 L 41.8125 -25.6875 C 40.488281 -25.6875 39.394531 -25.945312 38.53125 -26.46875 C 37.664062 -26.988281 36.921875 -27.835938 36.296875 -29.015625 L 30.15625 -40.359375 L 30.15625 -3.75 C 30.15625 -2.425781 29.859375 -1.46875 29.265625 -0.875 C 28.679688 -0.289062 27.734375 0 26.421875 0 Z M 26.421875 0"/></g><mask id="b"><g filter="url(#a)"><path fill-opacity=".8" d="M-37.5 -37.5H412.5V412.5H-37.5z"/></g></mask><mask id="e"><g filter="url(#a)"><path fill-opacity=".6" d="M-37.5 -37.5H412.5V412.5H-37.5z"/></g></mask><mask id="h"><g filter="url(#a)"><path fill-opacity=".4" d="M-37.5 -37.5H412.5V412.5H-37.5z"/></g></mask><filter x="0%" y="0%" width="100%" xmlns:xlink="http://www.w3.org/1999/xlink" xlink:type="simple" xlink:actuate="onLoad" height="100%" id="a" xlink:show="other"><feColorMatrix values="0 0 0 0 1 0 0 0 0 1 0 0 0 0 1 0 0 0 1 0" color-interpolation-filters="sRGB"/></filter></defs><path fill="#FF8B8B" d="M 187.496094 0 L 274.773438 87.277344 L 187.496094 174.554688 L 100.21875 87.277344 Z M 187.496094 0"/><g mask="url(#b)"><g><g clip-path="url(#c)" transform="translate(200 100)"><g clip-path="url(#d)"><path fill="#FFDE59" d="M 87.71875 0.222656 L 174.996094 87.5 L 87.71875 174.777344 L 0.441406 87.5 Z M 87.71875 0.222656"/></g></g></g></g><g mask="url(#e)"><g><g clip-path="url(#f)" transform="translate(0 100)"><g clip-path="url(#g)"><path fill="#5271FF" d="M 87.273438 0.222656 L 174.550781 87.5 L 87.273438 174.777344 L -0.00390625 87.5 Z M 87.273438 0.222656"/></g></g></g></g><g mask="url(#h)"><g><g clip-path="url(#i)" transform="translate(100 200)"><g clip-path="url(#j)"><path fill="#7ED957" d="M 87.496094 0.445312 L 174.773438 87.722656 L 87.496094 175 L 0.21875 87.722656 Z M 87.496094 0.445312"/></g></g></g></g><g fill="#FFDE59"><use x="149.97" y="120.888" xmlns:xlink="http://www.w3.org/1999/xlink" xlink:href="#k" xlink:type="simple" xlink:actuate="onLoad" xlink:show="embed"/></g><path transform="matrix(.75 0 0 .75 153.698 15.963)" fill="none" d="M 55.891677 146.997487 L 12.053132 146.997487 C 10.313549 146.997487 9.047924 146.606862 8.261465 145.815195 C 7.469798 145.023528 7.073965 143.763111 7.073965 142.023528 L 7.073965 125.773527 C 7.073965 124.01311 7.469798 122.752693 8.261465 121.98186 C 9.047924 121.195402 10.313549 120.799568 12.053132 120.799568 L 49.355218 120.799568 C 50.553135 120.799568 51.454176 120.403735 52.063551 119.612068 C 52.672926 118.82561 52.980218 117.877693 52.980218 116.768318 C 52.980218 115.190193 52.672926 114.039151 52.063551 113.315193 C 51.454176 112.570401 50.553135 112.153734 49.355218 112.065193 L 28.573966 109.153734 C 22.094799 108.226651 16.891674 106.106859 12.96459 102.78915 C 9.037507 99.450609 7.073965 93.898525 7.073965 86.132899 L 7.073965 71.575607 C 7.073965 63.72144 9.615632 57.695397 14.693757 53.497481 C 19.771883 49.27873 26.797925 47.169355 35.7823 47.169355 L 74.610428 47.169355 C 76.350011 47.169355 77.610428 47.565188 78.402095 48.351647 C 79.193761 49.143314 79.589595 50.408939 79.589595 52.143314 L 79.589595 68.664148 C 79.589595 70.424565 79.193761 71.700607 78.402095 72.492273 C 77.610428 73.257898 76.350011 73.643315 74.610428 73.643315 L 42.282301 73.643315 C 41.084384 73.643315 40.162509 74.03394 39.506259 74.825607 C 38.87605 75.617274 38.558342 76.606857 38.558342 77.804774 C 38.558342 79.002691 38.87605 80.018316 39.506259 80.851649 C 40.162509 81.684982 41.084384 82.148524 42.282301 82.242274 L 62.964594 85.018316 C 69.417719 85.940191 74.631261 88.075608 78.60522 91.41415 C 82.600012 94.731858 84.600012 100.273525 84.600012 108.033942 L 84.600012 122.591235 C 84.600012 130.445402 82.027095 136.481861 76.881261 140.70582 C 71.756261 144.903737 64.761469 146.997487 55.891677 146.997487 Z M 55.891677 146.997487" stroke="#000" stroke-width="5.2"/><g fill="#5271FF"><use x="53.041" y="227.327" xmlns:xlink="http://www.w3.org/1999/xlink" xlink:href="#l" xlink:type="simple" xlink:actuate="onLoad" xlink:show="embed"/></g><path transform="matrix(.75 0 0 .75 48.863 122.056)" fill="none" d="M 35.343938 146.998176 L 14.557478 146.998176 C 12.797061 146.998176 11.52102 146.607551 10.729353 145.815885 C 9.963728 145.024218 9.578311 143.763801 9.578311 142.024218 L 9.578311 52.144004 C 9.578311 50.409628 9.963728 49.144003 10.729353 48.352337 C 11.52102 47.565878 12.797061 47.170045 14.557478 47.170045 L 28.979354 47.170045 C 30.739771 47.170045 32.239771 47.451295 33.479354 48.013795 C 34.718938 48.555462 35.953313 49.513795 37.172063 50.894003 L 64.047065 81.696089 L 64.047065 52.144004 C 64.047065 50.409628 64.442898 49.144003 65.234565 48.352337 C 66.026232 47.565878 67.297065 47.170045 69.057482 47.170045 L 89.843941 47.170045 C 91.604358 47.170045 92.8804 47.565878 93.672067 48.352337 C 94.458525 49.144003 94.854358 50.409628 94.854358 52.144004 L 94.854358 142.024218 C 94.854358 143.763801 94.458525 145.024218 93.672067 145.815885 C 92.8804 146.607551 91.604358 146.998176 89.843941 146.998176 L 69.057482 146.998176 C 67.297065 146.998176 66.026232 146.607551 65.234565 145.815885 C 64.442898 145.024218 64.047065 143.763801 64.047065 142.024218 L 64.047065 124.961717 L 40.354355 96.253381 L 40.354355 142.024218 C 40.354355 143.763801 39.958522 145.024218 39.166855 145.815885 C 38.375188 146.607551 37.104355 146.998176 35.343938 146.998176 Z M 35.343938 146.998176" stroke="#000" stroke-width="5.2"/><g fill="#7ED957"><use x="144.944" y="331.674" xmlns:xlink="http://www.w3.org/1999/xlink" xlink:href="#m" xlink:type="simple" xlink:actuate="onLoad" xlink:show="embed"/></g><path transform="matrix(.75 0 0 .75 149.54 216.828)" fill="none" d="M 45.768759 76.281009 L 39.237509 97.37476 L 61.003135 97.37476 L 54.503135 76.281009 C 54.117718 75.447675 53.711468 74.848717 53.284385 74.489342 C 52.878135 74.103925 52.404176 73.911217 51.86251 73.911217 L 48.409384 73.911217 C 47.846884 73.911217 47.346884 74.103925 46.919801 74.489342 C 46.513551 74.848717 46.128134 75.447675 45.768759 76.281009 Z M 37.846884 142.025805 C 37.846884 143.76018 37.45105 145.025805 36.664592 145.817472 C 35.893759 146.60393 34.633342 146.999763 32.872925 146.999763 L 12.492715 146.999763 C 10.732299 146.999763 9.456257 146.60393 8.66459 145.817472 C 7.878132 145.025805 7.482298 143.76018 7.482298 142.025805 L 7.482298 105.395594 C 7.482298 102.619552 7.919798 99.43726 8.800007 95.848718 C 9.680215 92.239343 11.044799 88.031009 12.898965 83.223717 L 24.95105 51.73934 C 25.51355 50.161215 26.372925 49.010174 27.523966 48.286215 C 28.675008 47.541423 30.175008 47.166423 32.023967 47.166423 L 69.331261 47.166423 C 71.091678 47.166423 72.544803 47.541423 73.695844 48.286215 C 74.846886 49.010174 75.706261 50.161215 76.268761 51.73934 L 88.320845 83.223717 C 90.169804 88.031009 91.539596 92.239343 92.419804 95.848718 C 93.300012 99.43726 93.737512 102.619552 93.737512 105.395594 L 93.737512 142.025805 C 93.737512 143.76018 93.341679 145.025805 92.555221 145.817472 C 91.763554 146.60393 90.487512 146.999763 88.727095 146.999763 L 67.805219 146.999763 C 65.956261 146.999763 64.591677 146.60393 63.711469 145.817472 C 62.83126 145.025805 62.388552 143.76018 62.388552 142.025805 L 62.388552 122.593512 L 37.846884 122.593512 Z M 37.846884 142.025805" stroke="#000" stroke-width="5.2"/><g fill="#FF8B8B"><use x="253.793" y="229.549" xmlns:xlink="http://www.w3.org/1999/xlink" xlink:href="#n" xlink:type="simple" xlink:actuate="onLoad" xlink:show="embed"/></g><path transform="matrix(.75 0 0 .75 249.197 114.703)" fill="none" d="M 35.206269 147.000019 L 14.555226 147.000019 C 12.794809 147.000019 11.518767 146.604186 10.732309 145.817727 C 9.961476 145.02606 9.581267 143.760435 9.581267 142.02606 L 9.581267 52.145846 C 9.581267 50.406263 9.961476 49.145846 10.732309 48.354179 C 11.518767 47.562512 12.794809 47.166679 14.555226 47.166679 L 36.898977 47.166679 C 38.367727 47.166679 39.586478 47.494804 40.555228 48.151054 C 41.523978 48.781262 42.430228 49.843763 43.263561 51.333346 L 55.753145 73.911472 C 56.20627 74.744806 56.591687 75.354181 56.904187 75.739598 C 57.242729 76.098973 57.685437 76.281264 58.227104 76.281264 L 59.477104 76.281264 C 60.044812 76.281264 60.482312 76.098973 60.800021 75.739598 C 61.112521 75.354181 61.508354 74.744806 61.982312 73.911472 L 74.30523 51.333346 C 75.143772 49.843763 76.044813 48.781262 77.013563 48.151054 C 77.987522 47.494804 79.216688 47.166679 80.706272 47.166679 L 103.148982 47.166679 C 104.909399 47.166679 106.18544 47.562512 106.971899 48.354179 C 107.763565 49.145846 108.159399 50.406263 108.159399 52.145846 L 108.159399 142.02606 C 108.159399 143.760435 107.763565 145.02606 106.971899 145.817727 C 106.18544 146.604186 104.909399 147.000019 103.148982 147.000019 L 81.820855 147.000019 C 80.060439 147.000019 78.784397 146.604186 77.997938 145.817727 C 77.206272 145.02606 76.810438 143.760435 76.810438 142.02606 L 76.810438 93.208349 L 68.654188 108.307308 C 67.815646 109.885433 66.815646 111.026058 65.638563 111.723975 C 64.487521 112.401058 63.034396 112.7396 61.273979 112.7396 L 55.753145 112.7396 C 53.992728 112.7396 52.529187 112.401058 51.352103 111.723975 C 50.201062 111.026058 49.221895 109.885433 48.409395 108.307308 L 40.216686 93.208349 L 40.216686 142.02606 C 40.216686 143.760435 39.820853 145.02606 39.034394 145.817727 C 38.242727 146.604186 36.966686 147.000019 35.206269 147.000019 Z M 35.206269 147.000019" stroke="#000" stroke-width="5.2"/></svg>